<?xml version="1.0" standalone="no"?><!DOCTYPE svg PUBLIC "-//W3C//DTD SVG 1.1//EN"
        "http://www.w3.org/Graphics/SVG/1.1/DTD/svg11.dtd">
<svg t="1722758370011" class="icon" viewBox="0 0 1024 1024" version="1.1" xmlns="http://www.w3.org/2000/svg" p-id="6186"
     xmlns:xlink="http://www.w3.org/1999/xlink" width="13" height="13">
    <path d="M922.338 890.662h-794.286v-793.981c0-17.475-14.297-31.771-31.771-31.771v0c-17.474 0-31.771 14.295-31.771 31.771v826.058c0 17.474 14.297 31.771 31.771 31.771v0c1.471 0 2.916-0.107 4.332-0.302h821.726c17.475 0 31.771-14.297 31.771-31.775v0c0-17.474-14.295-31.771-31.771-31.771v0zM882.213 266.483v0c-12.356-12.356-32.576-12.356-44.932 0l-224.358 224.359-138.256-138.257c-6.311-6.311-14.675-9.391-23.001-9.255-8.315-0.135-16.682 2.945-22.994 9.255l-228.25 228.255c-12.357 12.356-12.357 32.576 0 44.927v0c12.356 12.356 32.575 12.356 44.931 0l206.318-206.314 138.275 138.275c6.305 6.305 14.66 9.387 22.975 9.255 8.309 0.13 16.663-2.949 22.971-9.255l246.322-246.322c12.356-12.351 12.356-32.571 0-44.927v0zM882.213 266.483z"
          fill="#1afa29" p-id="6187"></path>
</svg>